<svg width="25" height="27" viewBox="0 0 25 27" fill="none" xmlns="http://www.w3.org/2000/svg">
<rect width="25" height="25" rx="12.5" fill="#FFC60A"/>
<path d="M17.7071 15.7071L20.3552 18.3552C20.7113 18.7113 20.7113 19.2887 20.3552 19.6448C18.43 21.57 15.3821 21.7866 13.204 20.153L11.6286 18.9714C9.88504 17.6638 8.33622 16.115 7.02857 14.3714L5.84701 12.796C4.21341 10.6179 4.43001 7.56999 6.35523 5.64477C6.71133 5.28867 7.28867 5.28867 7.64477 5.64477L10.2929 8.29289C10.6834 8.68342 10.6834 9.31658 10.2929 9.70711L9.27175 10.7283C9.10946 10.8905 9.06923 11.1385 9.17187 11.3437C10.3585 13.7171 12.2829 15.6415 14.6563 16.8281C14.8615 16.9308 15.1095 16.8905 15.2717 16.7283L16.2929 15.7071C16.6834 15.3166 17.3166 15.3166 17.7071 15.7071Z" fill="#FFC60A" stroke="#33363F" stroke-width="2"/>
</svg>
